# xmcd
#
# Track frame offsets:
#	150
#	12998
#	26998
#	42874
#	58749
#	76973
#	99452
#	122115
#	140284
#	155048
#	169625
#	180989
#	194794
#	209399
#	221647
#	231906
#	247821
#	261829
#	273699
#	279877
#
# Disc length: 4061
#
# Revision: 2
# Processed by: cddbd v1.5.1PL0 Copyright (c) Steve Scherf et al.
# Submitted via: CDex 1.51
# Normalized: r1:TRMNUM
#
DISCID=240fdb14
DTITLE=Jerry Lee Lewis - Live
DYEAR=1900
DGENRE=Blues
TTITLE0=Come on In
TTITLE1=Rockin' my Life Away
TTITLE2=The One Rose Left in my Heart
TTITLE3=Pick Me  Up on Your Way Down
TTITLE4=Here Lies The Man That Loves You So
TTITLE5=Mexicali Rose
TTITLE6=My Lovely Fraulein
TTITLE7=Release me
TTITLE8=Boogie Woogie Man from Tennessee
TTITLE9=Everybody's Darlin'
TTITLE10=Medley: Good Golly Miss Molly;Tutti Frutti - Long Tall Sally - Whole lotta' shakin' going on
TTITLE11=Life is Like a Railroad
TTITLE12=Too Many Rivers
TTITLE13=Memphis Tennessee
TTITLE14=Blue Suede Shoes
TTITLE15=Georgia On My Mind
TTITLE16=Doin' the Best He Can
TTITLE17=Honky Tonk Feeling
TTITLE18=Great Balls of Fire
TTITLE19=Whole Lotta Shakin' Goin' On
EXTD=
EXTT0=
EXTT1=
EXTT2=
EXTT3=
EXTT4=
EXTT5=
EXTT6=
EXTT7=
EXTT8=
EXTT9=
EXTT10=
EXTT11=
EXTT12=
EXTT13=
EXTT14=
EXTT15=
EXTT16=
EXTT17=
EXTT18=
EXTT19=
PLAYORDER=
